<?xml version="1.0" standalone="no"?>
<!DOCTYPE svg PUBLIC "-//W3C//DTD SVG 20010904//EN"
 "http://www.w3.org/TR/2001/REC-SVG-20010904/DTD/svg10.dtd">
<svg version="1.0" xmlns="http://www.w3.org/2000/svg"
 width="967.000000pt" height="528.000000pt" viewBox="0 0 967.000000 528.000000"
 preserveAspectRatio="xMidYMid meet">
<metadata>
Created by potrace 1.16, written by Peter Selinger 2001-2019
</metadata>
<g transform="translate(0.000000,528.000000) scale(0.100000,-0.100000)"
fill="#000000" stroke="none">
<path d="M4779 3451 c-1 -3 -1 -9 0 -13 0 -5 -8 -8 -19 -8 -13 0 -20 -7 -20
-19 0 -15 7 -18 33 -17 28 1 32 5 34 32 1 20 -4 31 -13 31 -8 0 -15 -3 -15 -6z"/>
<path d="M4693 3392 c-19 -2 -33 -9 -33 -16 0 -13 -60 -26 -116 -26 -36 0 -61
-32 -69 -89 -5 -36 -11 -51 -22 -51 -8 0 -17 -9 -20 -20 -4 -15 -14 -20 -42
-21 -58 -2 -64 -3 -68 -16 -3 -7 2 -16 11 -19 19 -7 21 -31 4 -36 -8 -3 -12
-31 -13 -78 -1 -62 1 -74 17 -78 24 -6 23 -19 -2 -32 -24 -13 -26 -38 -5 -46
20 -8 19 -24 -2 -40 -17 -13 -17 -15 0 -28 21 -16 22 -32 2 -40 -9 -3 -15 -19
-15 -41 0 -33 -2 -35 -35 -35 -19 0 -35 -4 -35 -10 0 -5 -10 -18 -22 -29 l-21
-21 27 -25 c15 -13 40 -26 56 -27 18 -1 30 -9 33 -20 3 -10 12 -18 21 -18 9 0
16 -6 16 -14 0 -22 17 -28 41 -15 15 8 19 8 15 0 -5 -7 9 -11 42 -11 41 0 51
-3 55 -20 4 -15 14 -20 42 -20 23 0 34 -4 30 -11 -4 -6 2 -13 14 -16 16 -4 21
-13 21 -40 0 -26 5 -36 19 -40 11 -3 21 -13 24 -24 6 -24 20 -24 43 -1 17 16
18 16 11 0 -6 -16 2 -18 78 -18 74 0 85 -2 86 -17 2 -32 -3 -47 -18 -59 -19
-13 -8 -38 13 -30 9 3 14 -2 14 -14 0 -11 7 -20 15 -20 10 0 15 10 15 33 0 24
-3 28 -10 17 -6 -9 -10 -10 -10 -3 0 6 5 15 10 18 6 3 10 23 10 44 0 31 4 38
18 37 14 -1 17 9 20 69 2 55 0 72 -13 81 -21 16 -25 68 -5 69 8 0 16 10 18 23
2 15 -2 22 -12 22 -9 0 -16 7 -16 15 0 11 12 15 51 15 42 0 52 3 56 19 3 14
15 21 37 23 l31 3 1 69 c1 61 -1 69 -18 74 -18 4 -20 11 -14 50 3 25 6 51 6
58 0 8 7 14 15 14 11 0 14 9 12 32 -2 31 -5 33 -47 35 -87 5 -122 11 -138 26
-12 11 -43 16 -99 18 l-81 3 -7 53 c-4 36 -11 53 -21 53 -10 0 -14 12 -14 40
0 33 -3 40 -20 40 -11 0 -20 7 -20 15 0 8 9 15 20 15 18 0 20 7 20 60 0 33 3
59 8 59 20 -3 32 2 32 15 0 19 -8 22 -47 18z"/>
<path d="M2645 1910 c-3 -6 1 -7 10 -4 8 4 23 0 33 -7 15 -13 16 -12 3 4 -15
19 -36 22 -46 7z"/>
<path d="M2985 1910 c-4 -6 -4 -14 -1 -17 3 -4 6 -1 6 5 0 15 36 16 43 2 3 -6
4 -5 3 2 -3 17 -42 23 -51 8z"/>
<path d="M4837 1913 c-4 -3 -7 -32 -7 -64 0 -82 -5 -91 -38 -73 -66 34 -151 6
-199 -65 -33 -49 -32 -133 2 -183 26 -38 95 -78 135 -78 41 0 110 41 136 80
23 35 25 47 29 201 2 107 0 168 -7 176 -11 14 -40 17 -51 6z m-71 -203 c39
-15 53 -39 54 -88 0 -56 -35 -92 -90 -92 -103 0 -127 147 -30 183 23 8 37 8
66 -3z"/>
<path d="M5556 1904 c-3 -9 -6 -109 -6 -222 0 -196 1 -208 20 -220 17 -10 23
-9 40 8 17 17 20 33 20 105 l0 86 122 -3 123 -3 3 -85 c3 -100 6 -110 30 -110
39 0 42 16 42 230 0 213 -3 230 -41 230 -25 0 -32 -16 -34 -79 -1 -31 -2 -68
-3 -83 l-2 -28 -119 0 c-138 0 -131 -5 -131 105 0 57 -3 74 -16 79 -26 10 -42
7 -48 -10z"/>
<path d="M3107 1903 c-15 -14 -6 -23 12 -12 26 17 53 4 49 -23 -3 -27 -46 -38
-59 -16 -7 10 -9 10 -9 0 0 -7 10 -17 23 -21 40 -16 75 37 45 67 -13 13 -50
16 -61 5z"/>
<path d="M3660 1895 c-15 -18 -6 -61 16 -69 19 -7 50 8 58 29 16 42 -45 75
-74 40z m26 -12 c-5 -15 -4 -15 9 1 8 11 15 18 16 15 0 -2 2 -12 4 -21 2 -10
-1 -18 -6 -18 -6 0 -7 -5 -3 -11 4 -7 -2 -9 -17 -7 -25 3 -34 36 -14 50 15 12
18 10 11 -9z"/>
<path d="M2702 1869 c21 -57 91 -219 95 -216 4 5 -84 218 -94 226 -3 3 -4 -1
-1 -10z"/>
<path d="M2962 1860 c-7 -11 -12 -25 -12 -32 1 -7 8 0 16 15 18 33 14 46 -4
17z"/>
<path d="M2945 1674 c-97 -222 -108 -235 -140 -164 -10 22 -20 38 -22 36 -3
-2 5 -22 17 -45 24 -49 53 -54 74 -13 28 54 167 384 164 387 -2 2 -44 -88 -93
-201z"/>
<path d="M2650 1848 c0 -9 87 -214 108 -254 37 -69 23 -31 -39 112 -57 131
-69 155 -69 142z"/>
<path d="M2917 1748 c-15 -34 -25 -63 -23 -65 2 -2 15 24 30 58 15 34 25 63
23 65 -2 2 -16 -24 -30 -58z"/>
<path d="M3140 1782 c0 -7 5 -12 10 -12 7 0 10 -51 8 -147 -3 -147 -3 -148
-26 -147 -14 0 -19 -3 -13 -9 15 -15 51 2 52 26 1 12 1 78 -1 147 -1 92 -5
129 -16 140 -10 10 -14 10 -14 2z"/>
<path d="M3345 1767 c-41 -23 -85 -79 -84 -106 0 -10 4 -7 10 8 17 43 51 82
66 77 8 -3 11 -2 8 4 -3 5 13 14 35 21 54 16 105 1 150 -46 l35 -36 3 -110 c4
-105 3 -109 -17 -109 -12 0 -21 6 -21 15 0 19 -19 19 -44 0 -60 -46 -191 10
-216 91 -6 21 -9 23 -9 9 -1 -30 44 -91 80 -109 39 -20 129 -21 154 -2 16 12
21 11 34 -6 20 -24 49 -15 57 19 11 41 -3 178 -21 212 -22 43 -99 91 -144 91
-20 0 -54 -10 -76 -23z"/>
<path d="M3888 1777 c-65 -30 -98 -82 -98 -154 0 -98 63 -163 157 -163 74 0
96 12 81 45 -6 13 -15 22 -21 18 -6 -3 -7 -1 -3 5 11 18 26 14 26 -5 0 -15 2
-16 9 -3 6 8 7 18 5 22 -3 4 -1 8 4 8 6 0 13 -7 16 -16 9 -22 8 -24 -9 -24
-18 0 -18 -5 -5 -31 12 -22 43 -25 59 -5 23 27 6 236 -19 221 -4 -3 -7 2 -6
11 0 9 -16 30 -36 46 -42 35 -114 46 -160 25z m33 -32 c5 3 17 2 26 -4 15 -8
12 -9 -12 -7 -18 2 -34 -3 -41 -12 -11 -15 -11 -14 -5 43 1 6 6 2 12 -8 6 -9
14 -15 20 -12z m100 8 c13 -16 12 -17 -3 -4 -17 13 -22 21 -14 21 2 0 10 -8
17 -17z m34 -23 c-3 -5 -12 -10 -18 -10 -7 0 -6 4 3 10 19 12 23 12 15 0z
m-190 -20 c3 -5 1 -10 -4 -10 -6 0 -10 -3 -10 -7 1 -5 1 -15 0 -23 -1 -13 -2
-13 -11 0 -5 9 -5 19 2 27 7 9 7 13 0 13 -6 0 -16 -8 -21 -17 -6 -10 -11 -13
-11 -7 0 26 42 45 55 24z m150 -20 c20 -20 50 -104 34 -94 -5 3 -9 -2 -9 -10
0 -8 -12 -24 -27 -36 -23 -18 -37 -21 -76 -17 -38 3 -47 1 -43 -10 3 -8 1 -11
-4 -8 -6 4 -10 12 -9 18 1 7 -5 28 -14 48 -24 53 -3 108 48 130 28 12 77 2
100 -21z m52 16 c0 -8 -6 -12 -15 -9 -11 5 -11 7 0 14 7 5 13 9 14 9 0 0 1 -6
1 -14z m33 -51 c0 -8 -2 -15 -4 -15 -2 0 -6 7 -10 15 -3 8 -1 15 4 15 6 0 10
-7 10 -15z m-274 -90 c-3 -8 -1 -15 4 -15 6 0 10 -5 10 -11 0 -8 -4 -8 -14 1
-13 10 -12 40 1 40 3 0 3 -7 -1 -15z m253 -8 c0 -9 -2 -8 -6 1 -2 6 -10 9 -15
6 -7 -4 -8 -2 -4 5 9 13 26 5 25 -12z m-185 -76 c-3 -3 -15 6 -27 18 l-22 24
27 -19 c14 -10 24 -21 22 -23z m112 20 c-4 -5 -1 -11 5 -13 7 -2 -6 -4 -27 -5
l-39 -1 30 13 c38 17 37 17 31 6z m85 -24 c-10 -9 -11 -8 -5 6 3 10 9 15 12
12 3 -3 0 -11 -7 -18z"/>
<path d="M4263 1771 c-56 -35 -67 -63 -71 -178 -5 -111 4 -136 42 -131 19 3
21 11 26 103 3 55 9 107 14 117 10 22 60 42 90 34 44 -11 54 -31 61 -123 3
-49 7 -97 8 -108 2 -23 32 -32 52 -15 34 28 9 276 -25 255 -5 -3 -7 0 -4 9 6
16 -30 41 -46 31 -6 -4 -9 -1 -8 7 5 23 -101 22 -139 -1z"/>
<path d="M5053 1765 c-144 -86 -85 -305 82 -305 91 0 165 71 165 159 -1 131
-137 212 -247 146z m122 -59 c63 -26 75 -97 26 -147 -77 -77 -202 17 -150 112
9 18 59 47 82 49 4 0 23 -6 42 -14z"/>
<path d="M6116 1767 c-56 -32 -79 -67 -84 -131 -3 -43 0 -62 18 -93 31 -55 65
-76 130 -81 70 -5 109 13 150 70 99 137 -67 319 -214 235z m123 -61 c56 -29
67 -102 22 -147 -39 -38 -87 -39 -130 -3 -24 20 -31 34 -31 63 0 78 70 122
139 87z"/>
<path d="M6382 1778 c-6 -6 -12 -17 -12 -23 0 -6 30 -67 66 -135 l65 -123 -32
-70 c-34 -74 -32 -99 8 -105 23 -3 40 28 149 283 63 146 66 157 50 173 -12 13
-20 14 -33 6 -20 -13 -23 -17 -71 -123 l-38 -85 -54 105 c-54 102 -73 122 -98
97z"/>
<path d="M3105 1758 c-3 -13 -4 -79 -3 -148 l4 -125 2 136 c1 89 6 139 14 147
9 9 9 12 0 12 -6 0 -14 -10 -17 -22z"/>
<path d="M3667 1773 c-4 -3 -7 -73 -7 -155 0 -113 -4 -156 -15 -178 -17 -32
-43 -50 -74 -50 -31 0 -45 -34 -22 -54 18 -16 19 -15 19 10 0 19 -3 23 -10 13
-8 -11 -9 -11 -5 1 2 8 10 16 18 16 8 1 19 3 24 4 6 1 13 2 18 1 4 0 7 4 7 9
0 6 5 10 11 10 6 0 8 -7 5 -16 -3 -8 -2 -12 3 -9 5 3 12 1 15 -4 10 -16 -12
-23 -36 -11 -23 11 -23 11 -3 -6 20 -16 19 -16 -7 -12 -16 3 -28 2 -28 -3 0
-27 51 -15 94 22 46 40 56 86 54 237 l-2 137 -6 -150 c-9 -177 -8 -168 -19
-160 -5 3 -13 0 -17 -6 -4 -8 -3 -9 4 -5 7 4 12 3 12 -3 0 -14 -18 -23 -25
-12 -3 6 -12 8 -20 4 -8 -3 -15 0 -15 6 0 7 6 14 13 17 7 2 14 17 15 32 2 25
8 322 6 322 0 0 -4 -3 -7 -7z m8 -383 c3 -5 -1 -10 -10 -10 -9 0 -13 5 -10 10
3 6 8 10 10 10 2 0 7 -4 10 -10z"/>
<path d="M3690 1776 c0 -2 7 -6 15 -10 8 -3 15 -1 15 4 0 6 -7 10 -15 10 -8 0
-15 -2 -15 -4z"/>
<path d="M3344 1696 c-46 -46 -47 -91 -3 -141 27 -30 37 -35 75 -35 87 0 139
87 94 158 -39 62 -114 70 -166 18z m123 9 c28 -8 49 -51 45 -92 -7 -72 -97
-109 -155 -63 -55 44 -40 140 26 159 32 9 41 9 84 -4z"/>
<path d="M2865 1626 c-10 -25 -21 -46 -25 -46 -4 0 -13 14 -20 30 -7 17 -14
29 -17 27 -2 -2 5 -24 16 -48 l19 -44 26 59 c15 32 25 60 22 63 -2 2 -12 -16
-21 -41z"/>
</g>
</svg>
